<svg width="58" height="51" viewBox="0 0 58 51" fill="none" xmlns="http://www.w3.org/2000/svg">
<g filter="url(#filter0_ddd_7_824)">
<rect x="16" y="5" width="41" height="41" rx="20.5" fill="white"/>
<path d="M36.5 22.5C37.325 22.5 38 21.825 38 21C38 20.175 37.325 19.5 36.5 19.5C35.675 19.5 35 20.175 35 21C35 21.825 35.675 22.5 36.5 22.5ZM36.5 24C35.675 24 35 24.675 35 25.5C35 26.325 35.675 27 36.5 27C37.325 27 38 26.325 38 25.5C38 24.675 37.325 24 36.5 24ZM36.5 28.5C35.675 28.5 35 29.175 35 30C35 30.825 35.675 31.5 36.5 31.5C37.325 31.5 38 30.825 38 30C38 29.175 37.325 28.5 36.5 28.5Z" fill="#999999"/>
</g>
<defs>
<filter id="filter0_ddd_7_824" x="11" y="1" width="51" height="51" filterUnits="userSpaceOnUse" color-interpolation-filters="sRGB">
<feFlood flood-opacity="0" result="BackgroundImageFix"/>
<feColorMatrix in="SourceAlpha" type="matrix" values="0 0 0 0 0 0 0 0 0 0 0 0 0 0 0 0 0 0 127 0" result="hardAlpha"/>
<feOffset dy="1"/>
<feGaussianBlur stdDeviation="2.5"/>
<feComposite in2="hardAlpha" operator="out"/>
<feColorMatrix type="matrix" values="0 0 0 0 0.6 0 0 0 0 0.6 0 0 0 0 0.6 0 0 0 0.12 0"/>
<feBlend mode="normal" in2="BackgroundImageFix" result="effect1_dropShadow_7_824"/>
<feColorMatrix in="SourceAlpha" type="matrix" values="0 0 0 0 0 0 0 0 0 0 0 0 0 0 0 0 0 0 127 0" result="hardAlpha"/>
<feMorphology radius="2" operator="erode" in="SourceAlpha" result="effect2_dropShadow_7_824"/>
<feOffset dy="3"/>
<feGaussianBlur stdDeviation="0.5"/>
<feComposite in2="hardAlpha" operator="out"/>
<feColorMatrix type="matrix" values="0 0 0 0 0.6 0 0 0 0 0.6 0 0 0 0 0.6 0 0 0 0.2 0"/>
<feBlend mode="normal" in2="effect1_dropShadow_7_824" result="effect2_dropShadow_7_824"/>
<feColorMatrix in="SourceAlpha" type="matrix" values="0 0 0 0 0 0 0 0 0 0 0 0 0 0 0 0 0 0 127 0" result="hardAlpha"/>
<feOffset dy="2"/>
<feGaussianBlur stdDeviation="1"/>
<feComposite in2="hardAlpha" operator="out"/>
<feColorMatrix type="matrix" values="0 0 0 0 0.6 0 0 0 0 0.6 0 0 0 0 0.6 0 0 0 0.14 0"/>
<feBlend mode="normal" in2="effect2_dropShadow_7_824" result="effect3_dropShadow_7_824"/>
<feBlend mode="normal" in="SourceGraphic" in2="effect3_dropShadow_7_824" result="shape"/>
</filter>
</defs>
</svg>
