<svg width="30" height="24" viewBox="0 0 30 24" fill="none" xmlns="http://www.w3.org/2000/svg">
<g opacity="0.8" clip-path="url(#clip0_7_879)">
<path d="M22.1562 20.0156V3.98438H20.1875V6.98438H10.1562V3.98438H8.1875V20.0156H22.1562ZM15.875 2.29688C15.6875 2.10938 15.4531 2.01562 15.1719 2.01562C14.8906 2.01562 14.6562 2.10938 14.4688 2.29688C14.2812 2.48438 14.1875 2.71875 14.1875 3C14.1875 3.28125 14.2812 3.51562 14.4688 3.70312C14.6562 3.89062 14.8906 3.98438 15.1719 3.98438C15.4531 3.98438 15.6875 3.89062 15.875 3.70312C16.0625 3.51562 16.1562 3.28125 16.1562 3C16.1562 2.71875 16.0625 2.48438 15.875 2.29688ZM22.1562 2.01562C22.6875 2.01562 23.1562 2.21875 23.5625 2.625C23.9688 3 24.1719 3.45313 24.1719 3.98438V20.0156C24.1719 20.5469 23.9688 21.0156 23.5625 21.4219C23.1562 21.7969 22.6875 21.9844 22.1562 21.9844H8.1875C7.65625 21.9844 7.1875 21.7969 6.78125 21.4219C6.375 21.0156 6.17188 20.5469 6.17188 20.0156V3.98438C6.17188 3.45313 6.375 3 6.78125 2.625C7.1875 2.21875 7.65625 2.01562 8.1875 2.01562H12.3594C12.5781 1.42187 12.9375 0.9375 13.4375 0.5625C13.9375 0.1875 14.5156 0 15.1719 0C15.8281 0 16.4062 0.1875 16.9062 0.5625C17.4062 0.9375 17.7656 1.42187 17.9844 2.01562H22.1562Z" fill="white"/>
</g>
<defs>
<clipPath id="clip0_7_879">
<rect width="30" height="24" fill="white"/>
</clipPath>
</defs>
</svg>
