<svg width="16" height="16" viewBox="0 0 16 16" fill="none" xmlns="http://www.w3.org/2000/svg">
<path d="M7.99337 1.33301C4.31337 1.33301 1.33337 4.31967 1.33337 7.99967C1.33337 11.6797 4.31337 14.6663 7.99337 14.6663C11.68 14.6663 14.6667 11.6797 14.6667 7.99967C14.6667 4.31967 11.68 1.33301 7.99337 1.33301ZM8.00004 13.333C5.05337 13.333 2.66671 10.9463 2.66671 7.99967C2.66671 5.05301 5.05337 2.66634 8.00004 2.66634C10.9467 2.66634 13.3334 5.05301 13.3334 7.99967C13.3334 10.9463 10.9467 13.333 8.00004 13.333Z" fill="#999999"/>
<path d="M8.33337 4.66699H7.33337V8.66699L10.8334 10.767L11.3334 9.94699L8.33337 8.16699V4.66699Z" fill="#999999"/>
</svg>
