<svg width="16" height="16" viewBox="0 0 16 16" fill="none" xmlns="http://www.w3.org/2000/svg">
<path d="M14 6.74667H9.48L11.3067 4.86667C9.48666 3.06667 6.54 3 4.72 4.8C2.9 6.60667 2.9 9.52 4.72 11.3267C6.54 13.1333 9.48666 13.1333 11.3067 11.3267C12.2133 10.4333 12.6667 9.38667 12.6667 8.06667H14C14 9.38667 13.4133 11.1 12.24 12.26C9.9 14.58 6.1 14.58 3.76 12.26C1.42666 9.94667 1.40666 6.18667 3.74666 3.87333C6.08666 1.56 9.84 1.56 12.18 3.87333L14 2V6.74667ZM8.33333 5.33333V8.16667L10.6667 9.55333L10.1867 10.36L7.33333 8.66667V5.33333H8.33333Z" fill="#999999"/>
</svg>
