<svg width="29" height="34" viewBox="0 0 29 34" fill="none" xmlns="http://www.w3.org/2000/svg">
<path d="M25.921 30.5753V9.16543H9.16546V30.5753H25.921ZM25.921 6.15802C26.7325 6.15802 27.4486 6.46831 28.0692 7.08889C28.6897 7.66173 29 8.35391 29 9.16543V30.5753C29 31.3868 28.6897 32.1029 28.0692 32.7235C27.4486 33.344 26.7325 33.6543 25.921 33.6543H9.16546C8.35393 33.6543 7.63789 33.344 7.01731 32.7235C6.39673 32.1029 6.08645 31.3868 6.08645 30.5753V9.16543C6.08645 8.35391 6.39673 7.66173 7.01731 7.08889C7.63789 6.46831 8.35393 6.15802 9.16546 6.15802H25.921ZM21.3383 0V3.07901H3.00743V24.4889H2.52513e-05V3.07901C2.52513e-05 2.26749 0.286445 1.55144 0.859285 0.930864C1.47986 0.310288 2.19591 0 3.00743 0H21.3383Z" fill="white"/>
</svg>
