<svg width="16" height="16" viewBox="0 0 16 16" fill="none" xmlns="http://www.w3.org/2000/svg">
<path d="M14.2733 7.71967L8.27334 1.71967C8.03334 1.47967 7.70001 1.33301 7.33334 1.33301H2.66668C1.93334 1.33301 1.33334 1.93301 1.33334 2.66634V7.33301C1.33334 7.69967 1.48001 8.03301 1.72668 8.27967L7.72668 14.2797C7.96668 14.5197 8.30001 14.6663 8.66668 14.6663C9.03334 14.6663 9.36668 14.5197 9.60668 14.273L14.2733 9.60634C14.52 9.36634 14.6667 9.03301 14.6667 8.66634C14.6667 8.29967 14.5133 7.95967 14.2733 7.71967ZM3.66668 4.66634C3.11334 4.66634 2.66668 4.21967 2.66668 3.66634C2.66668 3.11301 3.11334 2.66634 3.66668 2.66634C4.22001 2.66634 4.66668 3.11301 4.66668 3.66634C4.66668 4.21967 4.22001 4.66634 3.66668 4.66634Z" fill="#999999"/>
</svg>
