<svg width="30" height="24" viewBox="0 0 30 24" fill="none" xmlns="http://www.w3.org/2000/svg">
<g opacity="0.8">
<path d="M26 8C26 9.1 25.1 10 24 10C23.82 10 23.65 9.98 23.49 9.93L19.93 13.48C19.98 13.64 20 13.82 20 14C20 15.1 19.1 16 18 16C16.9 16 16 15.1 16 14C16 13.82 16.02 13.64 16.07 13.48L13.52 10.93C13.36 10.98 13.18 11 13 11C12.82 11 12.64 10.98 12.48 10.93L7.93 15.49C7.98 15.65 8 15.82 8 16C8 17.1 7.1 18 6 18C4.9 18 4 17.1 4 16C4 14.9 4.9 14 6 14C6.18 14 6.35 14.02 6.51 14.07L11.07 9.52C11.02 9.36 11 9.18 11 9C11 7.9 11.9 7 13 7C14.1 7 15 7.9 15 9C15 9.18 14.98 9.36 14.93 9.52L17.48 12.07C17.64 12.02 17.82 12 18 12C18.18 12 18.36 12.02 18.52 12.07L22.07 8.51C22.02 8.35 22 8.18 22 8C22 6.9 22.9 6 24 6C25.1 6 26 6.9 26 8Z" fill="white"/>
</g>
</svg>
